<svg width="32" height="32" fill="none" xmlns="http://www.w3.org/2000/svg"><path fill-rule="evenodd" clip-rule="evenodd" d="M8.66 7.247A.523.523 0 0 1 9.11 7H22.89c.185 0 .356.094.448.247l1.59 2.618c.047.076.071.162.071.25 0 .538-.224 1.489-1.06 2.057v8.877a.508.508 0 0 1-.519.497h-2.51a.508.508 0 0 1-.52-.497c0-.274.233-.497.52-.497h1.992v-7.976a3.36 3.36 0 0 1-.542.042c-1.014 0-1.7-.41-2.115-.957l-.005-.006-.005.006c-.416.546-1.101.957-2.116.957-1.014 0-1.7-.41-2.115-.957L16 11.655l-.005.006c-.415.546-1.1.957-2.115.957-1.015 0-1.7-.41-2.116-.957l-.005-.006-.005.006c-.415.546-1.1.957-2.115.957-.191 0-.372-.015-.542-.043v7.977h.743c.286 0 .518.223.518.497a.508.508 0 0 1-.518.497H8.579a.508.508 0 0 1-.519-.497v-8.877C7.225 11.604 7 10.652 7 10.115a.48.48 0 0 1 .07-.25l1.59-2.618Zm2.58 2.868c0 .253-.084.646-.324.961-.22.29-.595.548-1.277.548-.357 0-.622-.07-.821-.17-.526-.261-.739-.813-.775-1.215l1.364-2.246h2.457l-.603 1.983a.477.477 0 0 0-.02.139Zm1.704-2.122-.665 2.187c.014.252.103.607.323.896.221.29.596.548 1.278.548.681 0 1.056-.258 1.277-.548.24-.315.325-.708.325-.961V7.993h-2.538Zm3.574 0v2.122c0 .253.085.646.325.961.22.29.596.548 1.277.548.682 0 1.057-.258 1.278-.548.22-.29.31-.644.323-.896l-.665-2.187h-2.538Zm3.619 0 .602 1.983c.013.045.02.092.02.139 0 .253.085.646.325.961.22.29.595.548 1.277.548.357 0 .622-.07.821-.17.526-.261.739-.813.775-1.215l-1.364-2.246h-2.456Z" fill="#fff"/><path fill-rule="evenodd" clip-rule="evenodd" d="M13.377 13.743a.595.595 0 0 1 .565-.38h5.11a.61.61 0 0 1 .486.234.53.53 0 0 1 .079.506l-1.433 3.922h2.43c.228 0 .436.121.536.313a.53.53 0 0 1-.065.589l-6.53 7.858a.623.623 0 0 1-.725.162.55.55 0 0 1-.33-.625l1.12-4.782h-3.234a.61.61 0 0 1-.485-.234.53.53 0 0 1-.08-.505l2.556-7.058Zm.992.738-2.15 5.94h3.142c.18 0 .352.078.465.21a.533.533 0 0 1 .118.47l-.714 3.051 4.163-5.01H17.35a.61.61 0 0 1-.486-.233.53.53 0 0 1-.079-.506l1.434-3.922h-3.849Z" fill="#fff"/></svg>
